<svg width="140" height="39" viewBox="0 0 140 39" fill="none" xmlns="http://www.w3.org/2000/svg">
<g clip-path="url(#clip0_46_160)">
<path d="M30.1553 7.88687C27.9048 6.83393 25.4985 6.0687 22.9828 5.63297C22.6738 6.19156 22.3129 6.94287 22.064 7.54054C19.3897 7.13836 16.74 7.13836 14.1149 7.54054C13.8661 6.94287 13.4969 6.19156 13.1852 5.63297C10.6667 6.0687 8.25767 6.83674 6.00719 7.89245C1.46797 14.7518 0.237458 21.4408 0.852713 28.0348C3.86337 30.2831 6.78105 31.6489 9.6495 32.5426C10.3577 31.5678 10.9894 30.5317 11.5335 29.4397C10.4972 29.0459 9.50457 28.5599 8.56668 27.9957C8.81549 27.8114 9.05888 27.6187 9.29402 27.4204C15.0145 30.096 21.23 30.096 26.8821 27.4204C27.12 27.6187 27.3634 27.8114 27.6095 27.9957C26.6688 28.5627 25.6735 29.0486 24.6371 29.4425C25.1813 30.5317 25.8102 31.5706 26.5212 32.5453C29.3924 31.6516 32.3128 30.2859 35.3234 28.0348C36.0454 20.3907 34.0902 13.7631 30.1553 7.88687ZM12.3129 23.9796C10.5956 23.9796 9.18736 22.3764 9.18736 20.4242C9.18736 18.4719 10.5656 16.866 12.3129 16.866C14.0602 16.866 15.4685 18.4691 15.4384 20.4242C15.4411 22.3764 14.0602 23.9796 12.3129 23.9796ZM23.8633 23.9796C22.1461 23.9796 20.7378 22.3764 20.7378 20.4242C20.7378 18.4719 22.1159 16.866 23.8633 16.866C25.6106 16.866 27.0189 18.4691 26.9888 20.4242C26.9888 22.3764 25.6106 23.9796 23.8633 23.9796Z" fill="white"/>
<path d="M47.4233 12.4988H54.8882C56.6878 12.4988 58.2081 12.7865 59.4552 13.359C60.6991 13.9315 61.6318 14.7303 62.2499 15.7525C62.8675 16.7747 63.1792 17.9449 63.1792 19.2632C63.1792 20.5535 62.8565 21.7237 62.2113 22.7711C61.566 23.8212 60.5842 24.6507 59.2637 25.2623C57.9431 25.874 56.3075 26.1812 54.3526 26.1812H47.4233V12.4988ZM54.2758 22.7041C55.4873 22.7041 56.4199 22.394 57.0705 21.7768C57.7215 21.1568 58.047 20.3133 58.047 19.2437C58.047 18.2521 57.7567 17.4617 57.1772 16.8697C56.5977 16.2776 55.7199 15.9787 54.5465 15.9787H52.2113V22.7041H54.2758Z" fill="white"/>
<path d="M74.3552 26.1644C73.3215 25.8907 72.3888 25.4941 71.5605 24.9718V21.7265C72.1868 22.2208 73.026 22.6286 74.0788 22.9497C75.1315 23.2681 76.149 23.4273 77.1331 23.4273C77.5925 23.4273 77.94 23.3659 78.1749 23.243C78.4103 23.1201 78.528 22.9721 78.528 22.8017C78.528 22.6062 78.4651 22.4442 78.3365 22.313C78.2078 22.1817 77.959 22.0728 77.5901 21.9806L75.2931 21.4527C73.9777 21.14 73.0451 20.707 72.4903 20.1513C71.9351 19.5982 71.6587 18.8721 71.6587 17.9728C71.6587 17.2159 71.8994 16.5596 72.3864 15.9982C72.8702 15.4369 73.5593 15.0039 74.4533 14.6995C75.3479 14.3923 76.392 14.2387 77.5925 14.2387C78.6643 14.2387 79.6461 14.356 80.5406 14.5906C81.4347 14.8252 82.1729 15.124 82.761 15.4899V18.5593C82.1591 18.1935 81.4699 17.9058 80.6826 17.6879C79.8977 17.4729 79.0914 17.3667 78.2597 17.3667C77.0592 17.3667 76.4607 17.5762 76.4607 17.9923C76.4607 18.1879 76.5536 18.3331 76.7395 18.4308C76.9253 18.5286 77.267 18.6291 77.7622 18.7353L79.6761 19.0872C80.9262 19.3078 81.8583 19.696 82.4707 20.249C83.0836 20.802 83.3896 21.6203 83.3896 22.704C83.3896 23.8909 82.8839 24.8322 81.8693 25.5304C80.8547 26.2286 79.4164 26.5777 77.5515 26.5777C76.455 26.5749 75.3889 26.4381 74.3552 26.1644Z" fill="white"/>
<path d="M87.9075 25.7537C86.8114 25.2062 85.9826 24.4633 85.4303 23.5249C84.8779 22.5865 84.5991 21.5308 84.5991 20.3578C84.5991 19.1848 84.886 18.1346 85.4603 17.2102C86.0346 16.2857 86.8767 15.5596 87.9871 15.0317C89.097 14.5039 90.4233 14.2413 91.9684 14.2413C93.8823 14.2413 95.4712 14.6519 96.7346 15.473V19.0507C96.289 18.7379 95.769 18.4837 95.1757 18.2882C94.5824 18.0928 93.9481 17.995 93.2699 17.995C92.0832 17.995 91.1563 18.2156 90.4862 18.6597C89.8162 19.1038 89.4802 19.6819 89.4802 20.3997C89.4802 21.1035 89.8052 21.6788 90.4562 22.1313C91.1072 22.5809 92.0503 22.8072 93.289 22.8072C93.9261 22.8072 94.5552 22.7122 95.1757 22.5251C95.7938 22.3352 96.3271 22.1034 96.7727 21.8296V25.29C95.3702 26.1502 93.7431 26.5803 91.8916 26.5803C90.3332 26.5748 89.0041 26.3011 87.9075 25.7537Z" fill="white"/>
<path d="M101.509 25.754C100.404 25.2066 99.562 24.4581 98.982 23.5057C98.4025 22.5533 98.1099 21.492 98.1099 20.319C98.1099 19.146 98.3996 18.0986 98.982 17.1798C99.5644 16.2609 100.401 15.5403 101.501 15.0181C102.597 14.4958 103.907 14.2361 105.424 14.2361C106.942 14.2361 108.252 14.4958 109.348 15.0181C110.445 15.5403 111.282 16.2553 111.856 17.1686C112.43 18.0819 112.717 19.1292 112.717 20.3162C112.717 21.4892 112.43 22.5505 111.856 23.5029C111.282 24.4553 110.442 25.2038 109.337 25.7512C108.233 26.2986 106.928 26.5723 105.422 26.5723C103.915 26.5723 102.611 26.3014 101.509 25.754ZM107.325 22.2852C107.79 21.8104 108.025 21.182 108.025 20.4C108.025 19.618 107.792 18.9952 107.325 18.5343C106.86 18.0707 106.225 17.8389 105.422 17.8389C104.604 17.8389 103.964 18.0707 103.497 18.5343C103.032 18.998 102.799 19.618 102.799 20.4C102.799 21.182 103.032 21.8104 103.497 22.2852C103.962 22.76 104.604 23.0002 105.422 23.0002C106.225 22.9974 106.86 22.76 107.325 22.2852Z" fill="white"/>
<path d="M124.218 14.9612V19.1841C123.732 18.8573 123.103 18.6953 122.323 18.6953C121.303 18.6953 120.516 19.0109 119.969 19.6421C119.419 20.2733 119.146 21.2564 119.146 22.5858V26.1831H114.456V14.7462H119.05V18.3825C119.304 17.0531 119.717 16.0728 120.286 15.4388C120.852 14.8076 121.585 14.492 122.476 14.492C123.152 14.492 123.732 14.6484 124.218 14.9612Z" fill="white"/>
<path d="M139.8 12.1079V26.1841H135.11V23.6231C134.713 24.5866 134.112 25.3211 133.302 25.8238C132.493 26.3238 131.492 26.5751 130.305 26.5751C129.244 26.5751 128.32 26.3126 127.53 25.7847C126.74 25.2569 126.13 24.5336 125.701 23.6147C125.274 22.6958 125.058 21.6569 125.058 20.495C125.044 19.2969 125.271 18.2216 125.739 17.2692C126.204 16.3168 126.862 15.5739 127.71 15.0405C128.558 14.507 129.526 14.2389 130.612 14.2389C132.846 14.2389 134.344 15.2304 135.11 17.2105V12.1079H139.8ZM134.41 22.2071C134.888 21.7323 135.126 21.115 135.126 20.361C135.126 19.632 134.894 19.0371 134.429 18.5819C133.964 18.1266 133.327 17.8976 132.526 17.8976C131.735 17.8976 131.104 18.1294 130.631 18.593C130.157 19.0567 129.923 19.6571 129.923 20.4C129.923 21.143 130.157 21.749 130.631 22.2182C131.104 22.6874 131.727 22.922 132.507 22.922C133.297 22.9193 133.931 22.6818 134.41 22.2071Z" fill="white"/>
<path d="M67.1306 15.9648C68.4216 15.9648 69.4686 15.0044 69.4686 13.8198C69.4686 12.6352 68.4216 11.6749 67.1306 11.6749C65.839 11.6749 64.7925 12.6352 64.7925 13.8198C64.7925 15.0044 65.839 15.9648 67.1306 15.9648Z" fill="white"/>
<path d="M64.7905 17.4424C66.2231 18.0735 68.0007 18.1015 69.4662 17.4424V26.2456H64.7905V17.4424Z" fill="white"/>
</g>
<defs>
<clipPath id="clip0_46_160">
<rect width="139.159" height="38.1258" fill="white" transform="translate(0.705078 0.0263672)"/>
</clipPath>
</defs>
</svg>
