<svg width="225" height="44" viewBox="0 0 225 44" fill="none" xmlns="http://www.w3.org/2000/svg">
<path d="M27.6042 5.76979L43.6803 21.8624L27.6042 37.955C26.8472 38.7127 25.9486 39.3138 24.9597 39.7238C23.9707 40.1339 22.9107 40.3449 21.8403 40.3449C20.7698 40.3449 19.7098 40.1339 18.7209 39.7238C17.7319 39.3138 16.8333 38.7127 16.0764 37.955L0.000227376 21.8624L16.0764 5.76979C17.6051 4.23954 19.6784 3.37986 21.8403 3.37986C24.0021 3.37986 26.0755 4.23954 27.6042 5.76979Z" fill="url(#paint0_linear_1_8)"/>
<path d="M221.725 18.767C221.139 18.7774 220.561 18.6351 220.046 18.3542C219.56 18.0849 219.157 17.6884 218.879 17.207C218.587 16.6959 218.439 16.1155 218.45 15.5271C218.439 14.9386 218.587 14.3582 218.879 13.8471C219.157 13.3658 219.56 12.9693 220.046 12.7C220.564 12.4268 221.14 12.284 221.725 12.284C222.309 12.284 222.886 12.4268 223.403 12.7C223.89 12.9685 224.294 13.3652 224.573 13.8471C224.864 14.3584 225.011 14.9389 225 15.5271C225.011 16.1153 224.863 16.6957 224.573 17.207C224.294 17.689 223.89 18.0856 223.403 18.3542C222.889 18.6361 222.31 18.7784 221.725 18.767ZM221.725 18.1118C222.07 18.1336 222.416 18.0816 222.739 17.9592C223.063 17.8367 223.357 17.6467 223.601 17.4017C223.846 17.1567 224.036 16.8624 224.158 16.5383C224.28 16.2143 224.331 15.8679 224.309 15.5223C224.32 15.1758 224.261 14.8306 224.135 14.5074C224.01 14.1841 223.821 13.8893 223.58 13.6405C223.339 13.3916 223.05 13.1938 222.732 13.0587C222.413 12.9236 222.07 12.854 221.723 12.854C221.377 12.854 221.034 12.9236 220.715 13.0587C220.396 13.1938 220.108 13.3916 219.867 13.6405C219.625 13.8893 219.437 14.1841 219.311 14.5074C219.186 14.8306 219.127 15.1758 219.138 15.5223C219.116 15.868 219.168 16.2144 219.29 16.5385C219.413 16.8625 219.602 17.1568 219.847 17.4018C220.092 17.6467 220.386 17.8367 220.709 17.9591C221.033 18.0816 221.379 18.1336 221.725 18.1118ZM220.6 17.2238V13.7608H221.924C222.24 13.7373 222.553 13.838 222.796 14.0415C222.889 14.1236 222.964 14.2244 223.015 14.3374C223.066 14.4503 223.093 14.5727 223.094 14.6967C223.097 14.882 223.045 15.064 222.945 15.2199C222.826 15.3845 222.658 15.5072 222.465 15.5703V15.7263C222.538 15.7241 222.61 15.7383 222.676 15.7678C222.742 15.7973 222.8 15.8413 222.847 15.8967C222.93 16.0213 222.971 16.1693 222.964 16.3191V17.2238H222.31V16.2879C222.316 16.2432 222.312 16.1976 222.298 16.1548C222.283 16.112 222.259 16.0731 222.228 16.0412C222.196 16.0093 222.157 15.9852 222.114 15.971C222.071 15.9567 222.026 15.9526 221.981 15.9591H221.262V17.2238H220.6ZM221.257 15.3783H221.926C221.999 15.3837 222.072 15.3725 222.139 15.3455C222.207 15.3185 222.268 15.2763 222.317 15.2223C222.398 15.1211 222.442 14.9947 222.441 14.8647C222.446 14.734 222.402 14.6063 222.317 14.5071C222.266 14.4568 222.204 14.4181 222.137 14.3936C222.069 14.3692 221.997 14.3596 221.926 14.3655H221.257V15.3783Z" fill="white"/>
<path d="M117.939 34.3047C116.505 34.3286 115.082 34.0514 113.762 33.4911C112.583 32.9912 111.569 32.1675 110.837 31.1152C110.12 30.0736 109.761 28.8041 109.761 27.3065C109.761 25.809 110.12 24.5538 110.837 23.5411C111.59 22.5036 112.629 21.7087 113.827 21.2539C115.222 20.7185 116.708 20.457 118.202 20.4836H124.182V19.2524C124.199 18.788 124.123 18.3249 123.958 17.8905C123.793 17.456 123.543 17.059 123.223 16.7229C122.583 16.0637 121.557 15.7333 120.144 15.7317C118.766 15.7317 117.74 16.0469 117.066 16.6773C116.38 17.3319 115.918 18.1871 115.747 19.1204L110.648 17.4045C111.003 16.2827 111.579 15.2432 112.34 14.347C113.192 13.3671 114.259 12.5982 115.457 12.1007C116.761 11.5295 118.352 11.2439 120.228 11.2439C123.105 11.2439 125.376 11.9639 127.042 13.4038C128.707 14.8438 129.543 16.9237 129.549 19.6436V27.7865C129.549 28.6681 129.959 29.1081 130.779 29.1065H132.539V33.6855H128.842C127.886 33.7271 126.943 33.4512 126.159 32.9007C125.824 32.6623 125.552 32.345 125.368 31.9767C125.185 31.6084 125.094 31.2004 125.105 30.7888V30.7408H124.27C124.072 31.2377 123.806 31.7046 123.479 32.128C122.965 32.7819 122.302 33.3022 121.544 33.6447C120.665 34.0863 119.463 34.3063 117.939 34.3047ZM118.898 29.8168C120.451 29.8168 121.719 29.3841 122.702 28.5185C123.685 27.6529 124.176 26.501 124.174 25.0626V24.6234H118.598C117.572 24.6234 116.765 24.8434 116.179 25.2834C115.892 25.4958 115.663 25.7755 115.51 26.0977C115.357 26.42 115.285 26.7749 115.301 27.1313C115.293 27.504 115.372 27.8735 115.532 28.21C115.692 28.5464 115.93 28.8404 116.224 29.0681C116.841 29.5672 117.735 29.8168 118.905 29.8168H118.898Z" fill="white"/>
<path d="M135.49 33.6893V11.8501H140.932V14.2284H141.723C142.167 13.4273 142.821 12.7633 143.615 12.3084C144.495 11.7661 145.65 11.4949 147.089 11.4949C148.641 11.4949 149.886 11.7957 150.824 12.3972C151.742 12.973 152.488 13.7865 152.982 14.7516H153.773C154.273 13.8114 154.998 13.0099 155.883 12.4188C156.792 11.8029 158.082 11.4949 159.752 11.4949C161.028 11.4779 162.288 11.772 163.425 12.3516C164.539 12.9398 165.456 13.8428 166.062 14.9483C166.722 16.1067 167.053 17.5667 167.053 19.3282V33.6773H161.51V19.7362C161.51 18.533 161.202 17.6306 160.587 17.0291C159.971 16.4275 159.107 16.1267 157.992 16.1267C156.731 16.1267 155.756 16.5267 155.068 17.3267C154.379 18.1266 154.034 19.2778 154.034 20.7801V33.6773H148.494V19.7362C148.494 18.533 148.186 17.6306 147.571 17.0291C146.955 16.4275 146.091 16.1267 144.977 16.1267C143.719 16.1267 142.745 16.5267 142.054 17.3267C141.364 18.1266 141.019 19.2778 141.021 20.7801V33.6773L135.49 33.6893Z" fill="white"/>
<path d="M181.627 34.3047C179.457 34.3047 177.544 33.8431 175.888 32.9199C174.249 32.0128 172.907 30.6521 172.021 29.0009C171.095 27.3161 170.633 25.3282 170.635 23.0371V22.5091C170.635 20.2212 171.089 18.2333 171.997 16.5453C172.871 14.8962 174.203 13.5359 175.833 12.6287C177.472 11.7039 179.378 11.2423 181.548 11.2439C183.687 11.2439 185.548 11.7239 187.132 12.6838C188.709 13.6317 189.989 15.0037 190.826 16.6437C191.704 18.3316 192.143 20.29 192.145 22.5187V24.633H176.082L176.279 24.4122C176.287 25.1048 176.44 25.788 176.73 26.4172C177.019 27.0465 177.437 27.6079 177.957 28.0649C179.021 29.0087 180.405 29.5122 181.826 29.4737C183.38 29.4737 184.523 29.1361 185.257 28.4609C185.976 27.7865 186.544 27.2609 186.935 26.4378L191.464 28.5977C190.963 29.4888 190.367 30.3225 189.685 31.084C188.806 32.0455 187.742 32.8193 186.556 33.3591C185.263 33.9911 183.62 34.3063 181.627 34.3047ZM176.307 20.2652L176.286 20.474H186.516V20.2652C186.479 19.6835 186.325 19.1151 186.065 18.5937C185.805 18.0723 185.443 17.6084 185.001 17.2293C184.105 16.4661 182.94 16.0845 181.505 16.0845C180.009 16.0845 178.821 16.4661 177.942 17.2293C177.049 18.01 176.468 19.0886 176.307 20.2652Z" fill="white"/>
<path d="M69.5601 34.3047C67.3912 34.3047 65.478 33.8431 63.8205 32.9199C62.1882 32.0102 60.8516 30.6498 59.9702 29.0009C59.0448 27.3161 58.5829 25.3282 58.5845 23.0371V22.5091C58.5845 20.2212 59.0384 18.2333 59.9462 16.5453C60.8201 14.8962 62.1524 13.5359 63.7822 12.6287C65.422 11.7039 67.3272 11.2423 69.4977 11.2439C71.6363 11.2439 73.4975 11.7239 75.0814 12.6838C76.6588 13.6317 77.9389 15.0037 78.7759 16.6437C79.6534 18.3316 80.0929 20.29 80.0945 22.5187V24.633H64.0315L64.2281 24.4122C64.2363 25.1048 64.39 25.788 64.6791 26.4172C64.9683 27.0465 65.3864 27.6079 65.9063 28.0649C66.971 29.0087 68.3542 29.5122 69.7758 29.4737C71.3294 29.4737 72.473 29.1361 73.2066 28.4609C73.9378 27.7865 74.494 27.2609 74.8848 26.4378L79.4136 28.5977C78.9127 29.4888 78.3162 30.3225 77.6347 31.084C76.7652 32.0475 75.711 32.8262 74.5348 33.3735C73.2178 33.9959 71.5595 34.3063 69.5601 34.3047ZM64.2401 20.2652L64.2185 20.474H74.4485V20.2652C74.4113 19.6835 74.2581 19.1151 73.9978 18.5937C73.7376 18.0723 73.3756 17.6084 72.9333 17.2293C72.0366 16.4661 70.8715 16.0845 69.4378 16.0845C67.9418 16.0845 66.7542 16.4661 65.8752 17.2293C64.9849 18.0116 64.4075 19.0899 64.2497 20.2652H64.2401Z" fill="white"/>
<path d="M205.017 34.3007C202.173 34.3007 199.843 33.6847 198.026 32.4527C196.208 31.2208 195.11 29.4608 194.729 27.1729L199.829 25.853C199.968 26.733 200.323 27.5648 200.862 28.2745C201.333 28.8538 201.958 29.2887 202.665 29.5296C203.422 29.785 204.217 29.9108 205.017 29.9016C206.307 29.9016 207.259 29.6744 207.874 29.2201C208.156 29.036 208.388 28.7849 208.549 28.4892C208.71 28.1935 208.795 27.8625 208.797 27.5257C208.806 27.2099 208.729 26.8977 208.574 26.6225C208.419 26.3473 208.192 26.1195 207.918 25.9634C207.333 25.5954 206.395 25.2946 205.105 25.061L203.873 24.8402C202.445 24.5784 201.046 24.1764 199.697 23.6403C198.525 23.1908 197.483 22.4578 196.664 21.5067C195.902 20.598 195.52 19.4244 195.52 17.9861C195.52 15.8149 196.311 14.1494 197.894 12.9894C199.476 11.8295 201.554 11.2503 204.127 11.2519C206.561 11.2519 208.584 11.7943 210.195 12.879C211.735 13.8683 212.86 15.3867 213.36 17.1485L208.217 18.7324C207.982 17.6125 207.503 16.8205 206.779 16.3565C205.979 15.8668 205.054 15.6224 204.118 15.6533C203.063 15.6533 202.257 15.8365 201.701 16.2029C201.44 16.3593 201.225 16.5819 201.078 16.8484C200.931 17.1148 200.858 17.4154 200.864 17.7197C200.848 18.0371 200.922 18.3526 201.078 18.6296C201.234 18.9066 201.465 19.1336 201.744 19.2844C202.486 19.6732 203.289 19.9328 204.118 20.0524L205.35 20.2732C206.868 20.5336 208.36 20.9238 209.812 21.4395C211.027 21.8458 212.118 22.5582 212.979 23.5083C213.754 24.4042 214.142 25.6146 214.144 27.1393C214.144 29.4289 213.315 31.1968 211.658 32.4431C210 33.6895 207.787 34.3087 205.017 34.3007Z" fill="white"/>
<path d="M106.244 30.6524V11.8586H100.792V14.4985H100.001C99.4144 13.6176 98.6509 12.8689 97.7591 12.3002C96.733 11.5946 95.2233 11.2426 93.2303 11.2442C91.4957 11.2296 89.7885 11.6777 88.2843 12.5426C86.753 13.4291 85.4973 14.7235 84.6569 16.2817C83.7475 17.912 83.2928 19.8711 83.2928 22.1591V22.8622C83.2928 25.1518 83.7475 27.1101 84.6569 28.7372C85.4966 30.2966 86.7524 31.5919 88.2843 32.4787C89.541 33.1629 90.9222 33.5874 92.3459 33.7272C93.7696 33.8669 95.2068 33.719 96.5723 33.2923C97.3471 33.034 98.0639 32.6264 98.6821 32.0923C99.1551 31.6694 99.5695 31.1851 99.9144 30.6524H106.244ZM99.0777 27.3069C97.9044 28.3563 96.386 28.9364 94.8126 28.9364C93.2391 28.9364 91.7208 28.3563 90.5475 27.3069C89.4031 26.2221 88.8317 24.6966 88.8333 22.7302V22.2911C88.8333 20.2943 89.4047 18.7608 90.5475 17.6904C91.7026 16.614 93.2352 16.0371 94.8126 16.0849C96.542 16.0849 97.9708 16.6201 99.0992 17.6904C100.228 18.7608 100.792 20.2943 100.792 22.2911V22.7302C100.792 24.6966 100.22 26.2221 99.0777 27.3069Z" fill="white"/>
<path d="M103.393 35.5681H100.705V36.3289C100.705 37.2097 100.293 37.6489 99.4727 37.6489H86.8117V42.4991H101.407C102.871 42.4991 104.044 42.0519 104.925 41.1575C105.805 40.2632 106.245 39.0632 106.243 37.5577V35.5681L103.393 35.5681Z" fill="white"/>
<path fill-rule="evenodd" clip-rule="evenodd" d="M24.807 9.78499C24.0192 8.99904 22.9523 8.55771 21.8401 8.55771C20.7279 8.55771 19.661 8.99904 18.8732 9.78499L6.80682 21.8614L10.0698 25.1181L25.1018 10.0706L24.807 9.78499ZM27.7322 12.7121L18.5896 21.864L21.8395 25.1171L30.982 15.9652L27.7322 12.7121ZM21.8412 30.4038L33.6247 18.6107L36.8733 21.8601L24.814 33.9413C24.0269 34.7284 22.9598 35.1706 21.8472 35.1706C20.7346 35.1706 19.6675 34.7284 18.8803 33.9413L12.7069 27.7615L15.9482 24.5L21.8412 30.4038Z" fill="url(#paint1_linear_1_8)"/>
<defs>
<linearGradient id="paint0_linear_1_8" x1="6.59564" y1="29.4154" x2="38.7345" y2="13.5229" gradientUnits="userSpaceOnUse">
<stop stop-color="#590BD8"/>
<stop offset="1" stop-color="#FF0088"/>
</linearGradient>
<linearGradient id="paint1_linear_1_8" x1="21.8401" y1="6.14209" x2="21.8401" y2="35.1706" gradientUnits="userSpaceOnUse">
<stop stop-color="white" stop-opacity="0.7"/>
<stop offset="1" stop-color="white"/>
</linearGradient>
</defs>
</svg>
