<svg width="187" height="24" viewBox="0 0 187 24" fill="none" xmlns="http://www.w3.org/2000/svg">
<g clip-path="url(#clip0_46_172)">
<path d="M30.6802 18.3012V5.43381H40.012V8.25544H33.9878V11.1697H39.0988V13.9913H33.9878V18.3012H30.6802Z" fill="white"/>
<path d="M44.6191 18.5601C43.8158 18.5732 43.0265 18.3497 42.3493 17.9175C41.6799 17.48 41.1411 16.8699 40.7899 16.1515C40.4037 15.3593 40.2103 14.487 40.2255 13.6058C40.2095 12.7228 40.4029 11.8486 40.7899 11.0547C41.1427 10.3393 41.6813 9.73182 42.3493 9.29589C42.9454 8.92855 43.6217 8.71109 44.3201 8.66211C45.0186 8.61313 45.7186 8.73408 46.3601 9.01461C46.8599 9.23727 47.2971 9.57968 47.633 10.0115L47.6882 8.90958H50.419V18.302H47.6882L47.633 17.2C47.2971 17.6319 46.8599 17.9743 46.3601 18.1969C45.8134 18.4441 45.219 18.5681 44.6191 18.5601ZM45.3721 15.9129C45.6483 15.9243 45.9234 15.8726 46.1766 15.7619C46.4298 15.6512 46.6545 15.4843 46.8337 15.2738C47.2108 14.802 47.4038 14.2092 47.3766 13.6058C47.4038 13.0023 47.2108 12.4096 46.8337 11.9377C46.6473 11.7361 46.4213 11.5752 46.1698 11.4652C45.9182 11.3552 45.6467 11.2984 45.3721 11.2984C45.0976 11.2984 44.826 11.3552 44.5745 11.4652C44.323 11.5752 44.0969 11.7361 43.9106 11.9377C43.5366 12.4108 43.3469 13.0035 43.3765 13.6058C43.3469 14.2081 43.5366 14.8007 43.9106 15.2738C44.0897 15.4843 44.3144 15.6512 44.5676 15.7619C44.8209 15.8726 45.096 15.9243 45.3721 15.9129Z" fill="white"/>
<path d="M56.568 18.5597C55.6589 18.5786 54.7606 18.3602 53.9618 17.9259C53.2245 17.5156 52.6152 16.9093 52.2011 16.1742C51.7684 15.3883 51.5498 14.5024 51.5674 13.6053C51.5502 12.7054 51.7706 11.8169 52.2065 11.0294C52.6205 10.2942 53.2299 9.68798 53.9671 9.27765C54.7651 8.84675 55.6614 8.6308 56.568 8.65102C57.2841 8.64311 57.9966 8.75503 58.6758 8.98214C59.266 9.17641 59.8179 9.47221 60.3064 9.85622L58.9998 12.0797C58.7115 11.8775 58.3955 11.718 58.0616 11.6062C57.7179 11.488 57.3569 11.4279 56.9935 11.4281C56.2885 11.4281 55.7384 11.6287 55.3432 12.0299C55.1434 12.239 54.9878 12.4863 54.886 12.7571C54.7841 13.0278 54.738 13.3163 54.7504 13.6053C54.7406 13.8922 54.7879 14.1781 54.8897 14.4464C54.9915 14.7148 55.1456 14.9602 55.3432 15.1684C55.7384 15.5778 56.2885 15.7831 56.9935 15.7843C57.3899 15.7845 57.7829 15.7108 58.1524 15.5671C58.5246 15.4241 58.8741 15.228 59.1903 14.985L60.5236 17.2085C60.005 17.6301 59.4171 17.9583 58.7861 18.1787C58.0752 18.4364 57.3241 18.5654 56.568 18.5597Z" fill="white"/>
<path d="M65.9571 18.5595C65.0052 18.5803 64.0628 18.3657 63.2138 17.9346C62.4483 17.5392 61.8107 16.9349 61.3748 16.1918C60.9257 15.405 60.6986 14.5109 60.7179 13.6051C60.6997 12.7069 60.915 11.8192 61.3428 11.0292C61.7478 10.2964 62.3496 9.69152 63.0803 9.28278C63.8656 8.85031 64.751 8.63234 65.6473 8.6508C67.0941 8.6508 68.2186 9.08755 69.0208 9.96104C69.8231 10.8345 70.2249 12.0676 70.226 13.6603V14.5504H63.6393C63.8018 15.0469 64.1331 15.4708 64.5757 15.7485C65.082 16.0547 65.6666 16.2069 66.258 16.1864C67.1967 16.1864 68.1373 15.8767 69.0796 15.2572L70.2189 17.2884C69.6362 17.7149 68.9812 18.0327 68.2856 18.2266C67.5297 18.4498 66.7453 18.5619 65.9571 18.5595ZM63.5859 12.6314H67.3724V12.5566C67.381 12.3363 67.3427 12.1168 67.2602 11.9124C67.1776 11.708 67.0527 11.5235 66.8935 11.371C66.5533 11.0631 66.1057 10.9014 65.6473 10.9206C65.1695 10.9065 64.7018 11.0595 64.3246 11.3532C63.9378 11.6809 63.6767 12.1326 63.5859 12.6314Z" fill="white"/>
<path d="M77.4089 18.5595C76.809 18.5686 76.2143 18.4471 75.666 18.2035C75.1648 17.9817 74.7249 17.6414 74.3843 17.2119L74.338 18.3049H71.5894V4.67207L74.7154 4.38724V9.69939C75.0448 9.36108 75.443 9.09758 75.8832 8.92678C76.5021 8.69467 77.1658 8.6072 77.8237 8.67107C78.4815 8.73495 79.116 8.94846 79.6786 9.29528C80.3469 9.73045 80.8851 10.3382 81.2363 11.0541C81.6246 11.8476 81.8187 12.722 81.8024 13.6052C81.8179 14.4866 81.6239 15.3591 81.2363 16.1509C80.8863 16.8696 80.348 17.4799 79.6786 17.9168C79.0015 18.3491 78.2121 18.5726 77.4089 18.5595ZM76.6452 15.9123C76.9213 15.9237 77.1964 15.872 77.4496 15.7613C77.7029 15.6506 77.9276 15.4837 78.1067 15.2732C78.4813 14.8004 78.6717 14.2077 78.6426 13.6052C78.6722 13.0029 78.4825 12.4102 78.1085 11.9371C77.9221 11.7355 77.6961 11.5746 77.4446 11.4646C77.193 11.3546 76.9215 11.2978 76.6469 11.2978C76.3724 11.2978 76.1008 11.3546 75.8493 11.4646C75.5978 11.5746 75.3717 11.7355 75.1854 11.9371C74.8114 12.4102 74.6217 13.0029 74.6513 13.6052C74.6217 14.2075 74.8114 14.8001 75.1854 15.2732C75.3643 15.4834 75.5888 15.6502 75.8417 15.7609C76.0946 15.8716 76.3693 15.9234 76.6452 15.9123Z" fill="white"/>
<path d="M87.6628 18.5602C86.7287 18.5796 85.805 18.3615 84.9782 17.9265C84.2241 17.5197 83.596 16.9138 83.1624 16.1747C82.7148 15.3938 82.4877 14.5059 82.5055 13.6059C82.4864 12.7035 82.7135 11.813 83.1624 11.0299C83.596 10.2908 84.2241 9.68493 84.9782 9.27818C85.8114 8.86144 86.7303 8.64447 87.6619 8.64447C88.5935 8.64447 89.5123 8.86144 90.3456 9.27818C91.1001 9.68441 91.7283 10.2904 92.1614 11.0299C92.609 11.8109 92.836 12.6988 92.8183 13.5988C92.836 14.4987 92.609 15.3866 92.1614 16.1676C91.7283 16.9071 91.1001 17.5131 90.3456 17.9193C89.5201 18.357 88.5969 18.5776 87.6628 18.5602ZM87.6628 15.8205C87.9368 15.8326 88.2101 15.7836 88.4629 15.6771C88.7157 15.5706 88.9416 15.4091 89.1243 15.2045C89.4966 14.7561 89.6871 14.1844 89.6584 13.6023C89.6871 13.0202 89.4966 12.4485 89.1243 12.0001C88.9341 11.8052 88.7068 11.6502 88.4558 11.5444C88.2048 11.4386 87.9352 11.3841 87.6628 11.3841C87.3904 11.3841 87.1208 11.4386 86.8697 11.5444C86.6187 11.6502 86.3914 11.8052 86.2012 12.0001C85.829 12.4485 85.6384 13.0202 85.6672 13.6023C85.6384 14.1844 85.829 14.7561 86.2012 15.2045C86.3837 15.4094 86.6096 15.5711 86.8624 15.6776C87.1152 15.7842 87.3887 15.833 87.6628 15.8205Z" fill="white"/>
<path d="M98.6328 18.5602C97.6993 18.58 96.776 18.3619 95.95 17.9265C95.1942 17.5208 94.5647 16.9147 94.1307 16.1747C93.683 15.3938 93.456 14.5059 93.4738 13.6059C93.4547 12.7035 93.6818 11.813 94.1307 11.0299C94.5637 10.2904 95.1919 9.68441 95.9465 9.27818C96.7797 8.86144 97.6985 8.64447 98.6302 8.64447C99.5618 8.64447 100.481 8.86144 101.314 9.27818C102.069 9.68441 102.699 10.2904 103.133 11.0299C103.58 11.8112 103.807 12.6989 103.79 13.5988C103.807 14.4986 103.58 15.3863 103.133 16.1676C102.7 16.9067 102.072 17.5126 101.317 17.9193C100.491 18.3569 99.5675 18.5774 98.6328 18.5602ZM98.6328 15.8205C98.9069 15.8327 99.1802 15.7838 99.433 15.6773C99.6858 15.5707 99.9118 15.4092 100.094 15.2045C100.467 14.7561 100.657 14.1844 100.628 13.6023C100.657 13.0202 100.467 12.4485 100.094 12.0001C99.9042 11.8052 99.6769 11.6502 99.4258 11.5444C99.1748 11.4386 98.9052 11.3841 98.6328 11.3841C98.3604 11.3841 98.0908 11.4386 97.8398 11.5444C97.5888 11.6502 97.3615 11.8052 97.1713 12.0001C96.799 12.4485 96.6085 13.0202 96.6372 13.6023C96.6085 14.1844 96.799 14.7561 97.1713 15.2045C97.3539 15.4092 97.5798 15.5707 97.8326 15.6773C98.0854 15.7838 98.3588 15.8327 98.6328 15.8205Z" fill="white"/>
<path d="M111.45 18.3014L108.068 13.9915V18.3014H104.943V4.67207L108.068 4.38724V12.861L111.138 8.90898H114.539L111.101 13.2385L115.155 18.3014H111.45Z" fill="white"/>
<path d="M125.964 18.6151C124.591 18.6151 123.396 18.3285 122.379 17.7552C121.383 17.2028 120.564 16.3794 120.016 15.3804C119.442 14.3003 119.154 13.0911 119.18 11.8681C119.155 10.6456 119.445 9.43719 120.022 8.35929C120.571 7.36008 121.391 6.53626 122.388 5.9827C123.485 5.391 124.718 5.09528 125.964 5.12464C126.922 5.12063 127.874 5.26783 128.786 5.56079C129.645 5.82894 130.443 6.26121 131.137 6.83365L129.713 9.19599C129.229 8.85448 128.696 8.58856 128.132 8.40735C127.558 8.21766 126.957 8.12032 126.352 8.11896C125.659 8.10481 124.974 8.26456 124.358 8.58359C123.794 8.88171 123.326 9.3359 123.013 9.89205C122.681 10.4967 122.514 11.1784 122.53 11.8681C122.517 12.5599 122.671 13.2446 122.981 13.8637C123.269 14.434 123.718 14.9079 124.271 15.2273C124.884 15.5695 125.578 15.7399 126.279 15.7205C126.949 15.731 127.614 15.6101 128.238 15.3644V13.5041H125.743V10.8943H131.349V16.988C130.899 17.3438 130.399 17.6317 129.865 17.8425C129.251 18.0951 128.614 18.286 127.963 18.4121C127.305 18.5454 126.636 18.6134 125.964 18.6151Z" fill="white"/>
<path d="M136.941 18.5601C136.138 18.5732 135.348 18.3497 134.671 17.9175C134.002 17.4805 133.463 16.8702 133.113 16.1515C132.726 15.3597 132.532 14.4872 132.547 13.6058C132.532 12.7223 132.727 11.8479 133.117 11.0547C133.468 10.3388 134.006 9.73106 134.675 9.29589C135.271 8.92855 135.948 8.71109 136.646 8.66211C137.345 8.61313 138.045 8.73408 138.687 9.01462C139.186 9.23822 139.623 9.58046 139.96 10.0115L140.015 8.90958H142.744V18.302H140.012L139.956 17.2C139.62 17.6311 139.183 17.9733 138.684 18.197C138.136 18.4439 137.541 18.5678 136.941 18.5601ZM137.696 15.9129C137.971 15.9243 138.246 15.8726 138.499 15.7619C138.752 15.6512 138.977 15.4843 139.155 15.2738C139.536 14.8034 139.731 14.2101 139.704 13.6058C139.732 13.0022 139.539 12.4091 139.161 11.9377C138.975 11.7362 138.749 11.5753 138.497 11.4653C138.246 11.3553 137.974 11.2985 137.7 11.2985C137.426 11.2985 137.154 11.3553 136.903 11.4653C136.651 11.5753 136.426 11.7362 136.239 11.9377C135.865 12.4108 135.676 13.0035 135.705 13.6058C135.676 14.2081 135.865 14.8007 136.239 15.2738C136.418 15.4838 136.642 15.6504 136.894 15.7611C137.146 15.8718 137.42 15.9237 137.696 15.9129Z" fill="white"/>
<path d="M144.391 18.3021V8.90972H147.131L147.177 9.97785C147.492 9.55961 147.903 9.22368 148.375 8.99874C148.879 8.75881 149.432 8.63704 149.99 8.64269C150.555 8.62957 151.114 8.76917 151.606 9.0468C152.069 9.31788 152.448 9.71235 152.699 10.1861C153.062 9.69852 153.543 9.31132 154.097 9.06104C154.69 8.78602 155.337 8.64617 155.991 8.65159C157.059 8.65159 157.921 8.99043 158.578 9.6681C159.234 10.3458 159.56 11.2661 159.557 12.4292V18.3039H156.424V12.8796C156.449 12.4607 156.323 12.0466 156.068 11.7136C155.942 11.5726 155.786 11.4621 155.611 11.3902C155.437 11.3183 155.248 11.2871 155.06 11.2988C154.851 11.29 154.642 11.3279 154.449 11.4098C154.257 11.4917 154.084 11.6156 153.946 11.7723C153.67 12.0874 153.531 12.5556 153.531 13.1733V18.3021H150.403V12.8796C150.427 12.4609 150.301 12.0474 150.047 11.7136C149.922 11.5734 149.767 11.4632 149.593 11.3914C149.42 11.3196 149.232 11.2879 149.045 11.2988C148.833 11.2882 148.622 11.3253 148.427 11.4073C148.232 11.4892 148.058 11.614 147.918 11.7723C147.645 12.0874 147.51 12.5556 147.51 13.1733V18.3021H144.391Z" fill="white"/>
<path d="M162.678 7.76965C162.448 7.76989 162.221 7.72487 162.009 7.63719C161.797 7.54951 161.604 7.42088 161.442 7.25867C161.28 7.09646 161.151 6.90384 161.064 6.69185C160.976 6.47987 160.931 6.25267 160.931 6.02326C160.931 5.67736 161.033 5.33912 161.225 5.05136C161.417 4.76361 161.69 4.53926 162.01 4.40673C162.329 4.27419 162.681 4.23942 163.02 4.30682C163.359 4.37422 163.671 4.54075 163.915 4.78534C164.16 5.02994 164.327 5.34159 164.394 5.68087C164.461 6.02015 164.427 6.37179 164.294 6.6913C164.162 7.01081 163.937 7.28382 163.649 7.47577C163.362 7.66773 163.023 7.77 162.678 7.76965ZM161.116 18.3014V8.90899H164.241V18.3014H161.116Z" fill="white"/>
<path d="M165.91 18.3007V8.90835H168.659L168.703 10.0103C169.046 9.57923 169.487 9.23723 169.99 9.01338C170.543 8.76856 171.142 8.64706 171.746 8.65734C172.824 8.65734 173.69 8.99617 174.343 9.67384C174.996 10.3515 175.322 11.2719 175.322 12.4349V18.3096H172.196V12.8782C172.22 12.4582 172.084 12.0446 171.815 11.7211C171.679 11.5765 171.513 11.4636 171.328 11.3904C171.144 11.3172 170.945 11.2854 170.747 11.2974C170.514 11.2881 170.282 11.3298 170.066 11.4196C169.851 11.5094 169.658 11.6451 169.501 11.8172C169.18 12.1908 169.013 12.6727 169.034 13.1648V18.2936L165.91 18.3007Z" fill="white"/>
<path d="M181.306 22.6001C180.558 22.5964 179.813 22.505 179.086 22.3277C178.353 22.1595 177.65 21.8791 177.003 21.4964L178.025 19.1981C178.484 19.4542 178.973 19.6532 179.481 19.7909C179.982 19.9323 180.5 20.0054 181.021 20.0081C181.793 20.0081 182.408 19.8396 182.869 19.5025C183.329 19.1655 183.559 18.6445 183.558 17.9395V17.0814C183.228 17.4381 182.823 17.7172 182.372 17.8985C181.876 18.099 181.345 18.1989 180.809 18.1923C180.008 18.2069 179.219 17.9886 178.539 17.5639C177.875 17.1418 177.336 16.5499 176.976 15.8495C176.602 15.0946 176.407 14.2632 176.407 13.4204C176.407 12.5776 176.602 11.7462 176.976 10.9913C177.337 10.2931 177.876 9.70328 178.539 9.28232C179.219 8.85703 180.008 8.63811 180.809 8.65212C181.406 8.64252 181.997 8.76407 182.541 9.00816C183.041 9.23083 183.478 9.57323 183.814 10.0051L183.869 8.90313H186.6V17.9377C186.6 19.458 186.13 20.6146 185.189 21.4073C184.247 22.2001 182.953 22.5977 181.306 22.6001ZM181.553 15.6573C181.828 15.6657 182.101 15.614 182.354 15.5058C182.606 15.3975 182.832 15.2353 183.015 15.0306C183.405 14.5846 183.609 14.006 183.585 13.4142C183.609 12.8217 183.405 12.2425 183.015 11.796C182.826 11.5986 182.599 11.4414 182.348 11.3341C182.097 11.2267 181.827 11.1714 181.553 11.1714C181.28 11.1714 181.01 11.2267 180.759 11.3341C180.507 11.4414 180.281 11.5986 180.092 11.796C179.702 12.2425 179.498 12.8217 179.522 13.4142C179.498 14.006 179.702 14.5846 180.092 15.0306C180.275 15.2352 180.501 15.3973 180.753 15.5056C181.006 15.6138 181.279 15.6656 181.553 15.6573Z" fill="white"/>
<path d="M23.0377 0.407227H0.519822C0.381957 0.407227 0.249738 0.461993 0.152252 0.559479C0.0547667 0.656964 0 0.789183 0 0.927048V23.4467C0 23.5846 0.0547667 23.7168 0.152252 23.8143C0.249738 23.9118 0.381957 23.9666 0.519822 23.9666H15.3757V16.9525C15.3757 16.8949 15.3528 16.8397 15.3121 16.7989C15.2713 16.7582 15.2161 16.7353 15.1585 16.7353H7.74926C7.6114 16.7353 7.47918 16.6806 7.38169 16.5831C7.28421 16.4856 7.22944 16.3534 7.22944 16.2155V8.15827C7.23178 8.02195 7.28757 7.89201 7.3848 7.79644C7.48204 7.70087 7.61293 7.64733 7.74926 7.64735H23.5575V0.927048C23.5575 0.789183 23.5028 0.656964 23.4053 0.559479C23.3078 0.461993 23.1756 0.407227 23.0377 0.407227ZM8.18363 8.80627V15.5711C8.18363 15.6282 8.20633 15.683 8.24673 15.7234C8.28712 15.7638 8.34191 15.7865 8.39904 15.7865H15.8012C15.939 15.7865 16.0712 15.8412 16.1687 15.9387C16.2662 16.0362 16.321 16.1684 16.321 16.3063V23.9612H23.0306C23.1685 23.9612 23.3007 23.9064 23.3982 23.809C23.4957 23.7115 23.5504 23.5793 23.5504 23.4414V8.59086H8.39904C8.37075 8.59086 8.34274 8.59643 8.31661 8.60726C8.29047 8.61808 8.26673 8.63395 8.24673 8.65395C8.22672 8.67395 8.21086 8.6977 8.20003 8.72383C8.18921 8.74997 8.18363 8.77798 8.18363 8.80627Z" fill="white"/>
</g>
<defs>
<clipPath id="clip0_46_172">
<rect width="186.6" height="23.5575" fill="white" transform="translate(0 0.407227)"/>
</clipPath>
</defs>
</svg>
