<svg width="24" height="20" viewBox="0 0 24 20" fill="none" xmlns="http://www.w3.org/2000/svg">
<path d="M8.28416 5.00326C9.03339 6.0672 10.2533 6.7002 11.5546 6.7002C12.8559 6.7002 14.0759 6.0672 14.8251 5.00326C15.2581 4.38838 15.961 4 16.7542 4C18.0548 4 19.1092 5.05441 19.1092 6.35504C19.1092 7.9961 18.0755 10.0681 16.0062 12.1579C14.5215 13.6572 12.8565 14.8035 11.5546 15.4822C10.2527 14.8035 8.58775 13.6572 7.10307 12.1579C5.03378 10.0681 4 7.9961 4 6.35504C4 5.0544 5.0544 4 6.35504 4C7.14826 4 7.85116 4.38838 8.28416 5.00326Z" stroke="#FF0088" stroke-width="8" stroke-linecap="round" stroke-linejoin="round"/>
</svg>
