<svg width="36" height="36" viewBox="0 0 36 36" fill="none" xmlns="http://www.w3.org/2000/svg">
<g clip-path="url(#clip0_230_861)">
<path d="M14.25 15C17.1495 15 19.5 12.6495 19.5 9.75C19.5 6.85051 17.1495 4.5 14.25 4.5C11.3505 4.5 9 6.85051 9 9.75C9 12.6495 11.3505 15 14.25 15Z" stroke="white" stroke-width="2"/>
<path d="M3 30.6V31.5H25.5V30.6C25.5 27.2397 25.5 25.5595 24.8461 24.2761C24.2708 23.1471 23.3529 22.2292 22.2239 21.6539C20.9405 21 19.2603 21 15.9 21H12.6C9.2397 21 7.55955 21 6.27606 21.6539C5.14709 22.2292 4.2292 23.1471 3.65396 24.2761C3 25.5595 3 27.2397 3 30.6Z" stroke="white" stroke-width="2"/>
<path d="M33.2497 32.5001V30.0008C33.2497 26.6405 33.2497 24.9603 32.5958 23.6768C32.0205 22.5479 31.1026 21.6299 29.9736 21.0547" stroke="white" stroke-width="2"/>
<path fill-rule="evenodd" clip-rule="evenodd" d="M24 15.6732C26.4709 14.8392 28.25 12.5024 28.25 9.75006C28.25 6.99773 26.4709 4.66093 24 3.8269V5.99911C25.3389 6.71452 26.25 8.1259 26.25 9.75006C26.25 11.3742 25.3389 12.7856 24 13.501V15.6732Z" fill="white"/>
</g>
<defs>
<clipPath id="clip0_230_861">
<rect width="36" height="36" fill="white"/>
</clipPath>
</defs>
</svg>
