<svg width="583" height="207" viewBox="0 0 583 207" fill="none" xmlns="http://www.w3.org/2000/svg">
<rect opacity="0.5" width="583" height="207" fill="black"/>
<path d="M317.274 75.024L306.976 64.726C305.871 63.6209 304.372 63 302.809 63H269.893C266.638 63 264 65.6383 264 68.8929V112.107C264 115.362 266.638 118 269.893 118H313.107C316.362 118 319 115.362 319 112.107V79.1909C319 77.628 318.379 76.1291 317.274 75.024ZM291.5 110.143C287.161 110.143 283.643 106.625 283.643 102.286C283.643 97.9464 287.161 94.4286 291.5 94.4286C295.839 94.4286 299.357 97.9464 299.357 102.286C299.357 106.625 295.839 110.143 291.5 110.143ZM303.286 72.7576V85.0982C303.286 85.9118 302.626 86.5714 301.813 86.5714H273.33C272.517 86.5714 271.857 85.9118 271.857 85.0982V72.3304C271.857 71.5168 272.517 70.8571 273.33 70.8571H301.385C301.776 70.8571 302.151 71.0123 302.427 71.2887L302.854 71.7159C302.991 71.8527 303.1 72.0151 303.174 72.1938C303.248 72.3726 303.286 72.5641 303.286 72.7576Z" fill="white"/>
<path d="M212.148 143.957C212.092 143.452 211.857 143.062 211.445 142.785C211.033 142.504 210.515 142.364 209.89 142.364C209.442 142.364 209.055 142.435 208.729 142.577C208.402 142.716 208.148 142.907 207.967 143.152C207.789 143.394 207.701 143.669 207.701 143.978C207.701 144.237 207.761 144.461 207.882 144.649C208.006 144.837 208.168 144.995 208.366 145.123C208.569 145.248 208.786 145.352 209.016 145.438C209.247 145.519 209.469 145.587 209.682 145.64L210.748 145.917C211.096 146.002 211.452 146.118 211.818 146.263C212.184 146.409 212.523 146.6 212.836 146.838C213.148 147.076 213.4 147.371 213.592 147.723C213.787 148.074 213.885 148.495 213.885 148.985C213.885 149.603 213.725 150.152 213.406 150.631C213.089 151.11 212.63 151.489 212.026 151.766C211.426 152.043 210.7 152.181 209.847 152.181C209.031 152.181 208.324 152.051 207.727 151.792C207.131 151.533 206.664 151.165 206.326 150.69C205.989 150.21 205.803 149.642 205.767 148.985H207.418C207.45 149.379 207.578 149.708 207.802 149.971C208.029 150.23 208.319 150.423 208.67 150.551C209.025 150.675 209.414 150.738 209.837 150.738C210.302 150.738 210.716 150.665 211.078 150.519C211.444 150.37 211.731 150.164 211.941 149.901C212.15 149.635 212.255 149.324 212.255 148.969C212.255 148.646 212.163 148.381 211.978 148.175C211.797 147.969 211.55 147.799 211.238 147.664C210.929 147.529 210.579 147.41 210.188 147.307L208.899 146.956C208.026 146.718 207.333 146.368 206.822 145.906C206.314 145.445 206.06 144.834 206.06 144.074C206.06 143.445 206.23 142.897 206.571 142.428C206.912 141.959 207.374 141.595 207.956 141.336C208.539 141.073 209.196 140.942 209.927 140.942C210.666 140.942 211.317 141.071 211.882 141.331C212.45 141.59 212.898 141.947 213.224 142.401C213.551 142.852 213.722 143.371 213.736 143.957H212.148ZM219.25 152.165C218.444 152.165 217.75 151.993 217.168 151.648C216.589 151.3 216.141 150.812 215.825 150.184C215.513 149.551 215.356 148.811 215.356 147.962C215.356 147.124 215.513 146.386 215.825 145.746C216.141 145.107 216.582 144.608 217.146 144.25C217.714 143.891 218.378 143.712 219.138 143.712C219.6 143.712 220.047 143.788 220.481 143.941C220.914 144.093 221.303 144.333 221.647 144.66C221.992 144.987 222.263 145.411 222.462 145.933C222.661 146.451 222.761 147.082 222.761 147.824V148.388H216.257V147.195H221.2C221.2 146.776 221.115 146.405 220.944 146.082C220.774 145.755 220.534 145.498 220.225 145.31C219.92 145.121 219.561 145.027 219.149 145.027C218.702 145.027 218.311 145.137 217.977 145.358C217.647 145.574 217.391 145.858 217.21 146.21C217.033 146.558 216.944 146.936 216.944 147.344V148.277C216.944 148.824 217.04 149.289 217.231 149.672C217.427 150.056 217.698 150.349 218.046 150.551C218.394 150.75 218.801 150.849 219.266 150.849C219.568 150.849 219.843 150.807 220.092 150.722C220.34 150.633 220.555 150.501 220.736 150.327C220.918 150.153 221.056 149.939 221.152 149.683L222.659 149.955C222.539 150.398 222.322 150.787 222.009 151.121C221.701 151.451 221.312 151.709 220.843 151.893C220.378 152.075 219.847 152.165 219.25 152.165ZM226.12 141.091V152H224.528V141.091H226.12ZM231.789 152.165C230.983 152.165 230.289 151.993 229.707 151.648C229.128 151.3 228.68 150.812 228.364 150.184C228.052 149.551 227.896 148.811 227.896 147.962C227.896 147.124 228.052 146.386 228.364 145.746C228.68 145.107 229.121 144.608 229.685 144.25C230.253 143.891 230.918 143.712 231.677 143.712C232.139 143.712 232.587 143.788 233.02 143.941C233.453 144.093 233.842 144.333 234.186 144.66C234.531 144.987 234.802 145.411 235.001 145.933C235.2 146.451 235.3 147.082 235.3 147.824V148.388H228.796V147.195H233.739C233.739 146.776 233.654 146.405 233.483 146.082C233.313 145.755 233.073 145.498 232.764 145.31C232.459 145.121 232.1 145.027 231.688 145.027C231.241 145.027 230.85 145.137 230.516 145.358C230.186 145.574 229.93 145.858 229.749 146.21C229.572 146.558 229.483 146.936 229.483 147.344V148.277C229.483 148.824 229.579 149.289 229.771 149.672C229.966 150.056 230.237 150.349 230.585 150.551C230.934 150.75 231.34 150.849 231.805 150.849C232.107 150.849 232.382 150.807 232.631 150.722C232.88 150.633 233.094 150.501 233.275 150.327C233.457 150.153 233.595 149.939 233.691 149.683L235.198 149.955C235.078 150.398 234.861 150.787 234.549 151.121C234.24 151.451 233.851 151.709 233.382 151.893C232.917 152.075 232.386 152.165 231.789 152.165ZM240.513 152.165C239.721 152.165 239.039 151.986 238.468 151.627C237.9 151.265 237.463 150.766 237.157 150.13C236.852 149.495 236.699 148.767 236.699 147.946C236.699 147.115 236.855 146.382 237.168 145.746C237.48 145.107 237.921 144.608 238.489 144.25C239.057 143.891 239.727 143.712 240.497 143.712C241.119 143.712 241.673 143.827 242.159 144.058C242.646 144.285 243.038 144.605 243.336 145.017C243.638 145.429 243.817 145.91 243.874 146.46H242.324C242.239 146.077 242.044 145.746 241.738 145.469C241.436 145.192 241.032 145.054 240.524 145.054C240.08 145.054 239.691 145.171 239.357 145.406C239.027 145.636 238.77 145.967 238.585 146.396C238.4 146.822 238.308 147.327 238.308 147.909C238.308 148.506 238.398 149.021 238.58 149.454C238.761 149.887 239.016 150.223 239.347 150.461C239.68 150.699 240.073 150.817 240.524 150.817C240.826 150.817 241.099 150.762 241.344 150.652C241.593 150.539 241.8 150.377 241.967 150.168C242.138 149.958 242.257 149.706 242.324 149.411H243.874C243.817 149.94 243.645 150.413 243.358 150.828C243.07 151.244 242.685 151.57 242.202 151.808C241.722 152.046 241.159 152.165 240.513 152.165ZM245.578 152V143.818H247.17V152H245.578ZM246.382 142.556C246.105 142.556 245.867 142.463 245.668 142.279C245.473 142.091 245.375 141.867 245.375 141.608C245.375 141.345 245.473 141.121 245.668 140.936C245.867 140.748 246.105 140.654 246.382 140.654C246.659 140.654 246.895 140.748 247.09 140.936C247.289 141.121 247.389 141.345 247.389 141.608C247.389 141.867 247.289 142.091 247.09 142.279C246.895 142.463 246.659 142.556 246.382 142.556ZM252.759 152.165C251.992 152.165 251.323 151.989 250.751 151.638C250.179 151.286 249.735 150.794 249.419 150.162C249.103 149.53 248.945 148.792 248.945 147.946C248.945 147.098 249.103 146.355 249.419 145.72C249.735 145.084 250.179 144.591 250.751 144.239C251.323 143.887 251.992 143.712 252.759 143.712C253.526 143.712 254.196 143.887 254.767 144.239C255.339 144.591 255.783 145.084 256.099 145.72C256.415 146.355 256.573 147.098 256.573 147.946C256.573 148.792 256.415 149.53 256.099 150.162C255.783 150.794 255.339 151.286 254.767 151.638C254.196 151.989 253.526 152.165 252.759 152.165ZM252.765 150.828C253.262 150.828 253.674 150.697 254 150.434C254.327 150.171 254.569 149.821 254.725 149.385C254.885 148.948 254.964 148.467 254.964 147.941C254.964 147.419 254.885 146.94 254.725 146.503C254.569 146.062 254.327 145.709 254 145.443C253.674 145.176 253.262 145.043 252.765 145.043C252.264 145.043 251.848 145.176 251.518 145.443C251.191 145.709 250.948 146.062 250.788 146.503C250.632 146.94 250.554 147.419 250.554 147.941C250.554 148.467 250.632 148.948 250.788 149.385C250.948 149.821 251.191 150.171 251.518 150.434C251.848 150.697 252.264 150.828 252.765 150.828ZM259.944 147.142V152H258.351V143.818H259.88V145.15H259.981C260.169 144.717 260.464 144.369 260.865 144.106C261.27 143.843 261.78 143.712 262.394 143.712C262.951 143.712 263.44 143.829 263.859 144.063C264.278 144.294 264.603 144.638 264.834 145.097C265.064 145.555 265.18 146.121 265.18 146.796V152H263.587V146.988C263.587 146.395 263.433 145.931 263.124 145.597C262.815 145.26 262.39 145.091 261.851 145.091C261.481 145.091 261.153 145.171 260.865 145.331C260.581 145.491 260.356 145.725 260.189 146.034C260.025 146.339 259.944 146.709 259.944 147.142ZM269.697 152.181C269.178 152.181 268.71 152.085 268.291 151.893C267.872 151.698 267.54 151.416 267.294 151.047C267.053 150.677 266.932 150.224 266.932 149.688C266.932 149.227 267.021 148.847 267.199 148.548C267.376 148.25 267.616 148.014 267.918 147.84C268.22 147.666 268.557 147.534 268.93 147.446C269.303 147.357 269.683 147.289 270.07 147.243C270.56 147.186 270.957 147.14 271.263 147.105C271.568 147.066 271.79 147.004 271.929 146.918C272.067 146.833 272.136 146.695 272.136 146.503V146.466C272.136 146 272.005 145.64 271.742 145.384C271.483 145.129 271.096 145.001 270.581 145.001C270.045 145.001 269.622 145.12 269.313 145.358C269.008 145.592 268.797 145.853 268.679 146.141L267.183 145.8C267.36 145.303 267.619 144.901 267.96 144.596C268.305 144.287 268.701 144.063 269.148 143.925C269.596 143.783 270.066 143.712 270.56 143.712C270.886 143.712 271.233 143.751 271.598 143.829C271.968 143.903 272.312 144.042 272.632 144.244C272.955 144.447 273.22 144.736 273.426 145.113C273.631 145.485 273.734 145.97 273.734 146.567V152H272.179V150.881H272.115C272.012 151.087 271.858 151.29 271.652 151.489C271.446 151.687 271.181 151.853 270.858 151.984C270.535 152.115 270.148 152.181 269.697 152.181ZM270.043 150.903C270.483 150.903 270.86 150.816 271.172 150.642C271.488 150.468 271.728 150.24 271.891 149.96C272.058 149.676 272.142 149.372 272.142 149.049V147.994C272.085 148.051 271.975 148.104 271.812 148.154C271.652 148.2 271.469 148.241 271.263 148.277C271.057 148.309 270.856 148.339 270.661 148.367C270.466 148.392 270.302 148.413 270.171 148.431C269.862 148.47 269.58 148.536 269.324 148.628C269.072 148.721 268.869 148.854 268.717 149.028C268.568 149.198 268.493 149.425 268.493 149.71C268.493 150.104 268.639 150.402 268.93 150.604C269.221 150.803 269.592 150.903 270.043 150.903ZM275.856 152V143.818H277.395V145.118H277.48C277.63 144.678 277.892 144.331 278.269 144.079C278.649 143.824 279.078 143.696 279.558 143.696C279.657 143.696 279.775 143.699 279.909 143.706C280.048 143.713 280.156 143.722 280.234 143.733V145.256C280.17 145.239 280.057 145.219 279.893 145.198C279.73 145.173 279.567 145.161 279.403 145.161C279.027 145.161 278.691 145.24 278.397 145.4C278.105 145.556 277.875 145.775 277.704 146.055C277.534 146.332 277.449 146.648 277.449 147.004V152H275.856ZM290.765 148.607V143.818H292.363V152H290.797V150.583H290.712C290.524 151.02 290.222 151.384 289.806 151.675C289.395 151.963 288.881 152.107 288.267 152.107C287.741 152.107 287.276 151.991 286.871 151.76C286.47 151.526 286.154 151.18 285.923 150.722C285.696 150.263 285.582 149.697 285.582 149.022V143.818H287.175V148.831C287.175 149.388 287.33 149.832 287.638 150.162C287.947 150.493 288.349 150.658 288.842 150.658C289.141 150.658 289.437 150.583 289.732 150.434C290.03 150.285 290.277 150.059 290.472 149.757C290.671 149.456 290.769 149.072 290.765 148.607ZM294.503 152V143.818H296.032V145.15H296.133C296.304 144.699 296.582 144.347 296.97 144.095C297.357 143.839 297.82 143.712 298.36 143.712C298.907 143.712 299.365 143.839 299.734 144.095C300.107 144.351 300.382 144.702 300.56 145.15H300.645C300.84 144.713 301.151 144.365 301.577 144.106C302.003 143.843 302.511 143.712 303.101 143.712C303.843 143.712 304.448 143.944 304.917 144.409C305.389 144.875 305.625 145.576 305.625 146.513V152H304.033V146.663C304.033 146.109 303.882 145.707 303.58 145.459C303.278 145.21 302.918 145.086 302.499 145.086C301.98 145.086 301.577 145.246 301.29 145.565C301.002 145.881 300.858 146.288 300.858 146.785V152H299.271V146.561C299.271 146.118 299.132 145.761 298.855 145.491C298.578 145.221 298.218 145.086 297.774 145.086C297.472 145.086 297.193 145.166 296.938 145.326C296.685 145.482 296.481 145.7 296.325 145.981C296.172 146.261 296.096 146.586 296.096 146.956V152H294.503ZM310.141 152.181C309.623 152.181 309.154 152.085 308.735 151.893C308.316 151.698 307.984 151.416 307.739 151.047C307.497 150.677 307.377 150.224 307.377 149.688C307.377 149.227 307.465 148.847 307.643 148.548C307.82 148.25 308.06 148.014 308.362 147.84C308.664 147.666 309.001 147.534 309.374 147.446C309.747 147.357 310.127 147.289 310.514 147.243C311.004 147.186 311.402 147.14 311.707 147.105C312.013 147.066 312.235 147.004 312.373 146.918C312.512 146.833 312.581 146.695 312.581 146.503V146.466C312.581 146 312.449 145.64 312.187 145.384C311.927 145.129 311.54 145.001 311.025 145.001C310.489 145.001 310.067 145.12 309.758 145.358C309.452 145.592 309.241 145.853 309.124 146.141L307.627 145.8C307.805 145.303 308.064 144.901 308.405 144.596C308.749 144.287 309.145 144.063 309.593 143.925C310.04 143.783 310.51 143.712 311.004 143.712C311.331 143.712 311.677 143.751 312.043 143.829C312.412 143.903 312.757 144.042 313.076 144.244C313.399 144.447 313.664 144.736 313.87 145.113C314.076 145.485 314.179 145.97 314.179 146.567V152H312.623V150.881H312.559C312.456 151.087 312.302 151.29 312.096 151.489C311.89 151.687 311.626 151.853 311.302 151.984C310.979 152.115 310.592 152.181 310.141 152.181ZM310.487 150.903C310.928 150.903 311.304 150.816 311.617 150.642C311.933 150.468 312.172 150.24 312.336 149.96C312.503 149.676 312.586 149.372 312.586 149.049V147.994C312.529 148.051 312.419 148.104 312.256 148.154C312.096 148.2 311.913 148.241 311.707 148.277C311.501 148.309 311.301 148.339 311.105 148.367C310.91 148.392 310.747 148.413 310.615 148.431C310.306 148.47 310.024 148.536 309.768 148.628C309.516 148.721 309.314 148.854 309.161 149.028C309.012 149.198 308.937 149.425 308.937 149.71C308.937 150.104 309.083 150.402 309.374 150.604C309.665 150.803 310.036 150.903 310.487 150.903ZM320.27 152V143.818H321.863V152H320.27ZM321.074 142.556C320.797 142.556 320.559 142.463 320.36 142.279C320.165 142.091 320.067 141.867 320.067 141.608C320.067 141.345 320.165 141.121 320.36 140.936C320.559 140.748 320.797 140.654 321.074 140.654C321.351 140.654 321.587 140.748 321.783 140.936C321.982 141.121 322.081 141.345 322.081 141.608C322.081 141.867 321.982 142.091 321.783 142.279C321.587 142.463 321.351 142.556 321.074 142.556ZM324.005 152V143.818H325.534V145.15H325.635C325.806 144.699 326.084 144.347 326.472 144.095C326.859 143.839 327.322 143.712 327.862 143.712C328.409 143.712 328.867 143.839 329.236 144.095C329.609 144.351 329.884 144.702 330.062 145.15H330.147C330.342 144.713 330.653 144.365 331.079 144.106C331.505 143.843 332.013 143.712 332.603 143.712C333.345 143.712 333.95 143.944 334.419 144.409C334.891 144.875 335.127 145.576 335.127 146.513V152H333.535V146.663C333.535 146.109 333.384 145.707 333.082 145.459C332.78 145.21 332.42 145.086 332.001 145.086C331.482 145.086 331.079 145.246 330.791 145.565C330.504 145.881 330.36 146.288 330.36 146.785V152H328.773V146.561C328.773 146.118 328.634 145.761 328.357 145.491C328.08 145.221 327.72 145.086 327.276 145.086C326.974 145.086 326.695 145.166 326.44 145.326C326.187 145.482 325.983 145.7 325.827 145.981C325.674 146.261 325.598 146.586 325.598 146.956V152H324.005ZM339.643 152.181C339.125 152.181 338.656 152.085 338.237 151.893C337.818 151.698 337.486 151.416 337.241 151.047C336.999 150.677 336.879 150.224 336.879 149.688C336.879 149.227 336.967 148.847 337.145 148.548C337.322 148.25 337.562 148.014 337.864 147.84C338.166 147.666 338.503 147.534 338.876 147.446C339.249 147.357 339.629 147.289 340.016 147.243C340.506 147.186 340.904 147.14 341.209 147.105C341.515 147.066 341.737 147.004 341.875 146.918C342.013 146.833 342.083 146.695 342.083 146.503V146.466C342.083 146 341.951 145.64 341.689 145.384C341.429 145.129 341.042 145.001 340.527 145.001C339.991 145.001 339.569 145.12 339.26 145.358C338.954 145.592 338.743 145.853 338.626 146.141L337.129 145.8C337.306 145.303 337.566 144.901 337.907 144.596C338.251 144.287 338.647 144.063 339.094 143.925C339.542 143.783 340.012 143.712 340.506 143.712C340.833 143.712 341.179 143.751 341.545 143.829C341.914 143.903 342.259 144.042 342.578 144.244C342.901 144.447 343.166 144.736 343.372 145.113C343.578 145.485 343.681 145.97 343.681 146.567V152H342.125V150.881H342.061C341.958 151.087 341.804 151.29 341.598 151.489C341.392 151.687 341.127 151.853 340.804 151.984C340.481 152.115 340.094 152.181 339.643 152.181ZM339.989 150.903C340.43 150.903 340.806 150.816 341.119 150.642C341.435 150.468 341.674 150.24 341.838 149.96C342.005 149.676 342.088 149.372 342.088 149.049V147.994C342.031 148.051 341.921 148.104 341.758 148.154C341.598 148.2 341.415 148.241 341.209 148.277C341.003 148.309 340.803 148.339 340.607 148.367C340.412 148.392 340.249 148.413 340.117 148.431C339.808 148.47 339.526 148.536 339.27 148.628C339.018 148.721 338.816 148.854 338.663 149.028C338.514 149.198 338.439 149.425 338.439 149.71C338.439 150.104 338.585 150.402 338.876 150.604C339.167 150.803 339.538 150.903 339.989 150.903ZM349.233 155.239C348.583 155.239 348.023 155.153 347.555 154.983C347.089 154.813 346.709 154.587 346.415 154.306C346.12 154.026 345.9 153.719 345.754 153.385L347.123 152.82C347.219 152.977 347.347 153.142 347.507 153.316C347.67 153.493 347.89 153.644 348.167 153.768C348.448 153.893 348.808 153.955 349.248 153.955C349.852 153.955 350.351 153.808 350.745 153.513C351.139 153.222 351.337 152.756 351.337 152.117V150.509H351.235C351.139 150.683 351.001 150.876 350.82 151.089C350.642 151.302 350.397 151.487 350.085 151.643C349.772 151.799 349.366 151.877 348.865 151.877C348.219 151.877 347.636 151.727 347.118 151.425C346.603 151.119 346.195 150.67 345.893 150.077C345.594 149.48 345.445 148.747 345.445 147.877C345.445 147.007 345.593 146.261 345.887 145.64C346.186 145.018 346.594 144.543 347.112 144.212C347.631 143.879 348.219 143.712 348.876 143.712C349.383 143.712 349.794 143.797 350.106 143.967C350.419 144.134 350.662 144.33 350.836 144.553C351.013 144.777 351.15 144.974 351.246 145.145H351.363V143.818H352.924V152.181C352.924 152.884 352.761 153.461 352.434 153.912C352.107 154.363 351.665 154.697 351.108 154.914C350.554 155.13 349.929 155.239 349.233 155.239ZM349.217 150.556C349.675 150.556 350.062 150.45 350.378 150.237C350.697 150.02 350.939 149.711 351.102 149.31C351.269 148.905 351.353 148.42 351.353 147.856C351.353 147.305 351.271 146.821 351.108 146.402C350.944 145.983 350.704 145.656 350.388 145.422C350.072 145.184 349.682 145.065 349.217 145.065C348.737 145.065 348.338 145.189 348.018 145.438C347.698 145.683 347.457 146.016 347.294 146.439C347.134 146.862 347.054 147.334 347.054 147.856C347.054 148.392 347.136 148.863 347.299 149.267C347.462 149.672 347.704 149.988 348.023 150.216C348.347 150.443 348.744 150.556 349.217 150.556ZM358.586 152.165C357.78 152.165 357.086 151.993 356.503 151.648C355.925 151.3 355.477 150.812 355.161 150.184C354.849 149.551 354.692 148.811 354.692 147.962C354.692 147.124 354.849 146.386 355.161 145.746C355.477 145.107 355.918 144.608 356.482 144.25C357.05 143.891 357.714 143.712 358.474 143.712C358.936 143.712 359.383 143.788 359.817 143.941C360.25 144.093 360.639 144.333 360.983 144.66C361.328 144.987 361.599 145.411 361.798 145.933C361.997 146.451 362.097 147.082 362.097 147.824V148.388H355.593V147.195H360.536C360.536 146.776 360.451 146.405 360.28 146.082C360.11 145.755 359.87 145.498 359.561 145.31C359.256 145.121 358.897 145.027 358.485 145.027C358.038 145.027 357.647 145.137 357.313 145.358C356.983 145.574 356.727 145.858 356.546 146.21C356.369 146.558 356.28 146.936 356.28 147.344V148.277C356.28 148.824 356.376 149.289 356.567 149.672C356.763 150.056 357.034 150.349 357.382 150.551C357.73 150.75 358.137 150.849 358.602 150.849C358.904 150.849 359.179 150.807 359.428 150.722C359.676 150.633 359.891 150.501 360.072 150.327C360.253 150.153 360.392 149.939 360.488 149.683L361.995 149.955C361.875 150.398 361.658 150.787 361.345 151.121C361.036 151.451 360.648 151.709 360.179 151.893C359.714 152.075 359.183 152.165 358.586 152.165ZM363.864 152V143.818H365.392V145.15H365.494C365.664 144.699 365.943 144.347 366.33 144.095C366.717 143.839 367.18 143.712 367.72 143.712C368.267 143.712 368.725 143.839 369.094 144.095C369.467 144.351 369.743 144.702 369.92 145.15H370.005C370.201 144.713 370.511 144.365 370.938 144.106C371.364 143.843 371.871 143.712 372.461 143.712C373.203 143.712 373.809 143.944 374.277 144.409C374.75 144.875 374.986 145.576 374.986 146.513V152H373.393V146.663C373.393 146.109 373.242 145.707 372.94 145.459C372.638 145.21 372.278 145.086 371.859 145.086C371.341 145.086 370.938 145.246 370.65 145.565C370.362 145.881 370.218 146.288 370.218 146.785V152H368.631V146.561C368.631 146.118 368.493 145.761 368.216 145.491C367.939 145.221 367.578 145.086 367.134 145.086C366.832 145.086 366.554 145.166 366.298 145.326C366.046 145.482 365.842 145.7 365.685 145.981C365.533 146.261 365.456 146.586 365.456 146.956V152H363.864Z" fill="white"/>
</svg>
