<svg width="28" height="28" viewBox="0 0 28 28" fill="none" xmlns="http://www.w3.org/2000/svg">
<g clip-path="url(#clip0_3_276)">
<path d="M20.4725 9.24371C22.0679 9.24371 23.3612 7.9504 23.3612 6.35505C23.3612 4.75969 22.0679 3.4664 20.4725 3.4664C18.8772 3.4664 17.5839 4.75969 17.5839 6.35505C17.5839 7.9504 18.8772 9.24371 20.4725 9.24371Z" stroke="white" stroke-width="1.73319" stroke-linejoin="round"/>
<path d="M7.76243 16.7542C9.35778 16.7542 10.6511 15.4609 10.6511 13.8655C10.6511 12.2702 9.35778 10.9769 7.76243 10.9769C6.16709 10.9769 4.87378 12.2702 4.87378 13.8655C4.87378 15.4609 6.16709 16.7542 7.76243 16.7542Z" stroke="white" stroke-width="1.73319" stroke-linejoin="round"/>
<path d="M17.5839 7.84223L10.2692 12.274" stroke="white" stroke-width="1.73319" stroke-linecap="round" stroke-linejoin="round"/>
<path d="M10.2692 15.3465L17.9763 19.9008" stroke="white" stroke-width="1.73319" stroke-linecap="round" stroke-linejoin="round"/>
<path d="M20.4725 18.4874C22.0679 18.4874 23.3612 19.7807 23.3612 21.3761C23.3612 22.9714 22.0679 24.2647 20.4725 24.2647C18.8772 24.2647 17.5839 22.9714 17.5839 21.3761C17.5839 19.7807 18.8772 18.4874 20.4725 18.4874Z" stroke="white" stroke-width="1.73319" stroke-linejoin="round"/>
</g>
<defs>
<clipPath id="clip0_3_276">
<rect width="27.7311" height="27.7311" fill="white" transform="translate(0.251953)"/>
</clipPath>
</defs>
</svg>
