<svg width="26" height="22" viewBox="0 0 26 22" fill="none" xmlns="http://www.w3.org/2000/svg">
<path d="M22.9302 5.90799C22.946 6.13006 22.946 6.35218 22.946 6.57425C22.946 13.3477 17.7906 21.1523 8.36802 21.1523C5.46509 21.1523 2.76841 20.3115 0.5 18.8522C0.912451 18.8997 1.30898 18.9156 1.7373 18.9156C4.13257 18.9156 6.33755 18.1066 8.09834 16.7265C5.8458 16.6789 3.95811 15.2037 3.30771 13.1732C3.625 13.2208 3.94224 13.2525 4.27539 13.2525C4.7354 13.2525 5.19546 13.189 5.62373 13.0781C3.27603 12.6021 1.51519 10.54 1.51519 8.04949V7.98606C2.19727 8.36678 2.99048 8.60471 3.83115 8.6364C2.45107 7.71634 1.54692 6.14593 1.54692 4.36927C1.54692 3.41751 1.80068 2.54505 2.24487 1.78362C4.76709 4.89275 8.55835 6.92317 12.8096 7.14529C12.7303 6.76458 12.6827 6.36805 12.6827 5.97146C12.6827 3.14783 14.9669 0.847733 17.8064 0.847733C19.2816 0.847733 20.6141 1.46639 21.55 2.46575C22.708 2.24368 23.8184 1.81536 24.802 1.22845C24.4212 2.41819 23.6122 3.41756 22.5494 4.05203C23.5805 3.94104 24.5799 3.65545 25.4999 3.25891C24.802 4.2741 23.9295 5.17825 22.9302 5.90799Z" fill="#6BAAE8"/>
</svg>
