<svg width="160" height="160" viewBox="0 0 160 160" fill="none" xmlns="http://www.w3.org/2000/svg">
<circle opacity="0.5" cx="80" cy="80" r="80" fill="black"/>
<path d="M98.3354 57.9285L108.044 67.6198C108.453 68.0281 108.453 68.6943 108.044 69.1026L84.5361 92.5681L74.5472 93.6747C73.2125 93.8252 72.0823 92.697 72.233 91.3647L73.3417 81.394L96.85 57.9285C97.259 57.5202 97.9264 57.5202 98.3354 57.9285ZM115.773 55.4681L110.52 50.2248C108.884 48.5917 106.225 48.5917 104.578 50.2248L100.768 54.0283C100.359 54.4366 100.359 55.1028 100.768 55.511L110.477 65.2024C110.886 65.6107 111.553 65.6107 111.963 65.2024L115.773 61.3989C117.409 59.755 117.409 57.1012 115.773 55.4681ZM96.3333 86.186V97.1237H61.8889V62.7419H86.6243C86.9687 62.7419 87.2917 62.6023 87.5392 62.3659L91.8448 58.0682C92.6628 57.2516 92.0816 55.8656 90.9299 55.8656H60.1667C57.3142 55.8656 55 58.1756 55 61.0229V98.8427C55 101.69 57.3142 104 60.1667 104H98.0556C100.908 104 103.222 101.69 103.222 98.8427V81.8883C103.222 80.7386 101.834 80.1692 101.016 80.975L96.7101 85.2727C96.4733 85.5198 96.3333 85.8422 96.3333 86.186Z" fill="white"/>
</svg>
