<svg width="106" height="24" viewBox="0 0 106 24" fill="none" xmlns="http://www.w3.org/2000/svg">
<g clip-path="url(#clip0_46_145)">
<path fill-rule="evenodd" clip-rule="evenodd" d="M30.3871 1.19837C31.8228 1.58365 32.9584 2.71807 33.3441 4.15216C34.0512 6.76347 34.0727 12.1787 34.0727 12.1787C34.0727 12.1787 34.0727 17.6154 33.3656 20.2053C32.9799 21.6394 31.8442 22.7738 30.4086 23.1591C27.8158 23.8654 17.3806 23.8654 17.3806 23.8654C17.3806 23.8654 6.94533 23.8654 4.3526 23.1591C2.91695 22.7738 1.78128 21.6394 1.39559 20.2053C0.688477 17.594 0.688477 12.1787 0.688477 12.1787C0.688477 12.1787 0.688477 6.76347 1.37416 4.17356C1.75986 2.73948 2.89552 1.60505 4.33117 1.21978C6.92391 0.513439 17.3591 0.492035 17.3591 0.492035C17.3591 0.492035 27.7944 0.492035 30.3871 1.19837ZM22.6944 12.1786L14.0377 17.1872V7.17002L22.6944 12.1786Z" fill="white"/>
<path d="M49.1148 21.7465C48.4505 21.297 47.9791 20.6121 47.7006 19.6703C47.422 18.7285 47.2935 17.487 47.2935 15.9245V13.8055C47.2935 12.243 47.4435 10.9587 47.7649 10.017C48.0863 9.05377 48.5791 8.36884 49.2648 7.94075C49.9505 7.51267 50.829 7.27722 51.9218 7.27722C52.9932 7.27722 53.8717 7.49126 54.5146 7.94075C55.1574 8.39024 55.6502 9.07518 55.9502 10.017C56.2502 10.9587 56.4002 12.2216 56.4002 13.7841V15.9031C56.4002 17.4656 56.2502 18.7071 55.9502 19.6489C55.6502 20.5906 55.1788 21.2756 54.5146 21.7251C53.8503 22.1532 52.9503 22.3886 51.8361 22.3886C50.679 22.41 49.7791 22.1746 49.1148 21.7465ZM52.8218 19.4562C53.0146 18.9853 53.1003 18.1934 53.1003 17.1232V12.5641C53.1003 11.5153 53.0146 10.7447 52.8218 10.2738C52.6289 9.78152 52.3075 9.54607 51.8575 9.54607C51.4076 9.54607 51.1076 9.78152 50.9147 10.2738C50.7219 10.7661 50.6362 11.5153 50.6362 12.5641V17.1232C50.6362 18.1934 50.7219 18.9853 50.8933 19.4562C51.0647 19.9271 51.3861 20.1626 51.8575 20.1626C52.3075 20.1626 52.6289 19.9271 52.8218 19.4562Z" fill="white"/>
<path d="M99.7913 15.9673V16.7165C99.7913 17.6583 99.8127 18.3646 99.877 18.8355C99.9413 19.3064 100.048 19.6489 100.22 19.8629C100.391 20.0769 100.67 20.184 101.034 20.184C101.527 20.184 101.87 19.9913 102.041 19.606C102.234 19.2208 102.32 18.5786 102.341 17.7011L105.191 17.8723C105.212 18.0007 105.212 18.172 105.212 18.386C105.212 19.7345 104.848 20.7405 104.098 21.404C103.348 22.0675 102.32 22.41 100.97 22.41C99.3413 22.41 98.2056 21.8963 97.5628 20.8903C96.92 19.8843 96.5771 18.3004 96.5771 16.1814V13.5915C96.5771 11.4082 96.92 9.80292 97.5842 8.79692C98.2699 7.79092 99.427 7.27722 101.056 7.27722C102.191 7.27722 103.048 7.49126 103.648 7.89794C104.248 8.30462 104.677 8.94675 104.934 9.82432C105.191 10.7019 105.298 11.9005 105.298 13.4416V15.9459H99.7913V15.9673ZM100.22 9.80292C100.048 10.017 99.9413 10.338 99.877 10.8089C99.8127 11.2798 99.7913 11.9861 99.7913 12.9493V13.9981H102.191V12.9493C102.191 12.0076 102.17 11.3012 102.105 10.8089C102.041 10.3166 101.934 9.97415 101.763 9.78152C101.591 9.58888 101.334 9.48186 100.991 9.48186C100.627 9.50326 100.37 9.61028 100.22 9.80292Z" fill="white"/>
<path d="M41.1009 15.6894L37.3511 2.1619H40.6295L41.9366 8.2835C42.2794 9.8032 42.5151 11.0875 42.6865 12.1363H42.7723C42.8794 11.3657 43.1365 10.1029 43.5222 8.30491L44.8722 2.1619H48.1506L44.3579 15.668V22.1534H41.1223V15.6894H41.1009Z" fill="white"/>
<path d="M67.0282 7.55594V22.175H64.4569L64.1783 20.3771H64.114C63.4069 21.7255 62.357 22.4105 60.9642 22.4105C59.9999 22.4105 59.2714 22.0894 58.8214 21.4473C58.35 20.8051 58.1357 19.8206 58.1357 18.4721V7.55594H61.4356V18.2795C61.4356 18.9216 61.4999 19.3925 61.6499 19.6707C61.7999 19.949 62.0356 20.0774 62.357 20.0774C62.6355 20.0774 62.9141 19.9918 63.1712 19.8206C63.4284 19.6493 63.6212 19.4139 63.7498 19.157V7.55594H67.0282Z" fill="white"/>
<path d="M83.9349 7.55594V22.175H81.3636L81.0851 20.3771H81.0208C80.3137 21.7255 79.2637 22.4105 77.8709 22.4105C76.9067 22.4105 76.1781 22.0894 75.7282 21.4473C75.2568 20.8051 75.0425 19.8206 75.0425 18.4721V7.55594H78.3423V18.2795C78.3423 18.9216 78.4066 19.3925 78.5566 19.6707C78.7066 19.949 78.9423 20.0774 79.2637 20.0774C79.5423 20.0774 79.8208 19.9918 80.078 19.8206C80.3351 19.6493 80.5279 19.4139 80.6565 19.157V7.55594H83.9349Z" fill="white"/>
<path d="M75.9853 4.81602H72.7069V22.1748H69.4928V4.81602H66.2144V2.1619H75.9639V4.81602H75.9853Z" fill="white"/>
<path d="M94.8196 9.88855C94.6268 8.96816 94.3054 8.30463 93.8554 7.87655C93.4054 7.46987 92.8054 7.25583 92.0126 7.25583C91.4127 7.25583 90.8341 7.42706 90.3198 7.76953C89.7842 8.112 89.3985 8.56148 89.0985 9.11799H89.077V1.41248H85.9058V22.1532H88.6271L88.9699 20.7619H89.0342C89.2913 21.2542 89.677 21.6395 90.1699 21.9391C90.6841 22.2174 91.2412 22.3672 91.8626 22.3672C92.9769 22.3672 93.7911 21.8535 94.3268 20.8261C94.8411 19.7987 95.1196 18.1934 95.1196 16.0316V13.7199C95.1196 12.0932 95.0125 10.8089 94.8196 9.88855ZM91.7984 15.8603C91.7984 16.9305 91.7555 17.7653 91.6698 18.3646C91.5841 18.9639 91.4341 19.392 91.2198 19.6489C91.0055 19.9057 90.727 20.0341 90.3841 20.0341C90.1056 20.0341 89.8699 19.9699 89.6342 19.8415C89.3985 19.7131 89.227 19.5204 89.077 19.2636V10.9588C89.1842 10.5521 89.377 10.231 89.6556 9.97416C89.9342 9.71731 90.2127 9.58889 90.5341 9.58889C90.877 9.58889 91.1341 9.71731 91.3055 9.97416C91.4984 10.231 91.6055 10.6805 91.6912 11.3012C91.7555 11.9219 91.7984 12.7995 91.7984 13.9553V15.8603Z" fill="white"/>
</g>
<defs>
<clipPath id="clip0_46_145">
<rect width="105.424" height="23.5446" fill="white" transform="translate(0.28125 0.407227)"/>
</clipPath>
</defs>
</svg>
